<svg width="480" height="720" viewBox="0 0 480 720" fill="none" xmlns="http://www.w3.org/2000/svg">
<rect width="480" height="720" rx="36" fill="#1E1E2E"/>
<rect x="36" y="36" width="408" height="648" rx="28" fill="#313244"/>
<rect x="72" y="84" width="336" height="552" rx="22" fill="#45475A"/>
<circle cx="240" cy="232" r="84" fill="#CBA6F7" fill-opacity="0.18"/>
<path d="M185 210C185 194.536 197.536 182 213 182H289C304.464 182 317 194.536 317 210V318C317 333.464 304.464 346 289 346H213C197.536 346 185 333.464 185 318V210Z" fill="#CBA6F7"/>
<path d="M214 205H289C291.761 205 294 207.239 294 210V318C294 320.761 291.761 323 289 323H214V205Z" fill="#F5E0DC"/>
<path d="M214 205H239V323H214V205Z" fill="#F38BA8"/>
<rect x="112" y="410" width="256" height="18" rx="9" fill="#CDD6F4"/>
<rect x="136" y="446" width="208" height="14" rx="7" fill="#BAC2DE" fill-opacity="0.9"/>
<rect x="152" y="478" width="176" height="14" rx="7" fill="#A6ADC8" fill-opacity="0.85"/>
<rect x="140" y="560" width="200" height="38" rx="19" fill="#CBA6F7"/>
</svg>
